<?xml version="1.0" encoding="UTF-8"?>
<svg id="Layer_1" xmlns="http://www.w3.org/2000/svg" version="1.1" viewBox="0 0 500 500">
  <!-- Generator: Adobe Illustrator 30.2.1, SVG Export Plug-In . SVG Version: 2.1.1 Build 1)  -->
  <path d="M49.52,392.42c58.61-16.01,99.84-68.94,132.99-116.99,34.35-50.7,64.3-107.78,95.53-160.48,12.02-20.12,24.34-40.11,38.32-58.97,5.94-7.77,12.03-15.73,19.79-21.92,26-18.94,13.67,38.93,11.8,49.86-7.13,38.35-18.73,75.68-26.86,113.8-4.94,22.72-9.17,45.74-11.36,68.89-.52,5.74-.89,11.48-.93,17.22,0,1.78,0,3.83.16,5.49.22,2.34-1.49,4.42-3.83,4.64s-4.42-1.49-4.64-3.83c-.07-1.33.02-2.46.07-3.6.93-14.8,3.66-29.42,6.44-43.93,8.84-46.02,23.3-90.69,34.09-136.22,3.02-13.89,15.12-63.83,5.69-73.03-7.29-4.51-23.81,18.98-27.93,24.46-22.5,31.75-40.7,66.26-58.93,100.59-21.43,40.15-44.21,84.42-67.97,123.11-33.41,53.86-73.64,110.04-135.63,132.66-5.93,2.13-12.46-.95-14.59-6.87-2.28-6.24,1.37-13.19,7.79-14.88h0Z"/>
  <path d="M127.92,239.33c51.93-9.78,104-25.8,148.77-54.53,6.26-4.15,12.45-8.47,17.14-14.38,4.59-5.68,8.22-12.48,9.45-19.67.32-2.79.75-5.76-.86-7.73-.13-.08-.2-.11-.32-.11-.24-.03-.81.12-1.42.5-5,3.69-7.78,9.72-10.64,15.19-2.46,5.04-4.54,10.31-6.47,15.59-12.33,34.06-24.97,68.08-36.93,102.29,0,.01-9.99-7.94-9.99-7.93,43.86-28.65,88.05-57.23,135.44-79.92,9.57-4.43,19.28-8.66,29.49-11.98,32.63-11.03,49.66-.81,32.19,33.38-20.01,37.32-48.14,69.24-75.1,101.5-31.02,35.65-64.94,69.18-102.72,97.75-16.38,12.52-34.18,24.63-50.87,36.72-12.89,9.58-25.92,19.38-41.76,24.05-8.08,2.34-17.35,3.67-25.65.47-10.59-4.05-13.62-15.11-7.68-24.52,6.29-9.83,16.56-15.11,26.92-19.04,25.11-9.19,52.14-8.06,78.38-8.85,31.26-.8,62.59-2.19,93.73-4.47,28.97-2.61,78.85-6.03,102.34-22.03,3.42-2.46,5.84-5.32,6.81-7.91,1.96-5.2,7.76-7.82,12.96-5.86s7.82,7.76,5.86,12.96c-1.79,4.07-4.87,7.77-7.92,10.51-23.79,21.55-87.8,20.65-119.64,21.61-36.62.55-73.1-.27-109.67.94-20.49.4-41.41,1.54-60.64,8.99-8.81,3.52-18.29,8.55-23.16,16.68-5.23,9.13,1.42,14.97,10.87,15.03,20.13-.29,37.09-14.36,52.24-26.49,20.36-16,41.71-31.72,61.17-48.4,27.66-23.29,53.03-49.4,77.8-75.73,24.7-26.44,49.93-52.98,71.49-82.06,7.29-10.25,26.31-36.24,22.32-48.04-3.69-6.81-21.54-1.22-27.72.71-38.97,13.77-74.36,36.43-108.92,58.86-17.3,11.52-34.31,23.5-50.93,36-5.44,4.05-12.66-1.79-9.99-7.94,12.77-27.71,24.96-55.68,36.79-83.78,3.93-8.72,21.14-56.14,33.84-47.71,3.07,2.96,2.43,7.72,1.8,11.38-2.54,11.64-9.92,21.7-19.12,29.01-27.78,20.57-59.88,34.36-92.17,46.17-21.65,7.73-43.73,14.23-66.06,19.72-4.58,1.05-6.38-5.85-1.47-6.95h0l.02.02Z"/>
  <path d="M51.47,403.83c114.35-33.88,198.76-246.73,243.38-316.31s67.03-78.73,50.32,0-45.23,170.9-39.11,201.95" fill="none" stroke="red" stroke-miterlimit="10"/>
  <path d="M129.12,242.42c54.59-15.06,103.89-32.25,144.33-55.57,53.79-31.02,31.32-88.37-3.15,10.86-15.53,44.71-28.27,75.11-28.27,75.11,0,0,53.68-42.64,128.03-79.81s82.07-14.19,38.59,47.06c-53.99,76.04-162.35,179.29-221.65,215.53s-90.35-12.71-4.71-31.53,237.65,11.76,266.35-38.12" fill="none" stroke="red" stroke-miterlimit="10"/>
</svg>